<svg xmlns="http://www.w3.org/2000/svg" width="21" height="21" viewBox="0 0 21 21" fill="none">
  <path d="M17.2844 11.6045C17.3121 11.6045 17.3391 11.6152 17.3586 11.6348C17.3782 11.6543 17.3889 11.6813 17.3889 11.709V16.543C17.3889 16.5706 17.3782 16.5976 17.3586 16.6172C17.3391 16.6367 17.3121 16.6475 17.2844 16.6475H3.99048C3.96283 16.6475 3.93581 16.6367 3.91626 16.6172C3.8967 16.5976 3.88599 16.5706 3.88599 16.543V11.709C3.88599 11.6813 3.8967 11.6543 3.91626 11.6348C3.93581 11.6152 3.96283 11.6045 3.99048 11.6045C4.01792 11.6045 4.04424 11.6155 4.06372 11.6348C4.08328 11.6543 4.09497 11.6813 4.09497 11.709V16.4385H17.1799V11.709C17.1799 11.6813 17.1916 11.6543 17.2112 11.6348C17.2307 11.6155 17.257 11.6045 17.2844 11.6045ZM10.637 3.14453C10.6646 3.14453 10.6916 3.15533 10.7112 3.1748C10.7307 3.19436 10.7415 3.22136 10.7415 3.24902V11.458L11.595 10.6035L13.5852 8.61328C13.5948 8.60377 13.606 8.59603 13.6184 8.59082C13.631 8.58562 13.6448 8.58306 13.6584 8.58301C13.6721 8.58301 13.6859 8.58565 13.6985 8.59082C13.7111 8.59605 13.723 8.60364 13.7327 8.61328C13.7424 8.62298 13.7499 8.63479 13.7551 8.64746C13.7604 8.66016 13.7639 8.67376 13.7639 8.6875C13.7639 8.7012 13.7604 8.71488 13.7551 8.72754C13.7499 8.74015 13.7423 8.75206 13.7327 8.76172L10.7112 11.7832L10.677 11.8057C10.6644 11.8108 10.6506 11.8135 10.637 11.8135C10.6235 11.8134 10.6103 11.8108 10.5979 11.8057L10.5637 11.7832L7.54224 8.76172C7.52264 8.74212 7.51101 8.71521 7.51099 8.6875C7.51099 8.65975 7.52262 8.6329 7.54224 8.61328C7.56184 8.59377 7.58879 8.58301 7.61646 8.58301C7.64394 8.58313 7.67021 8.5939 7.6897 8.61328L9.67993 10.6035L10.5334 11.458V3.24902C10.5334 3.22137 10.5442 3.19436 10.5637 3.1748C10.5832 3.15545 10.6095 3.14465 10.637 3.14453Z" fill="white" stroke="#797979"/>
</svg>
