<svg xmlns="http://www.w3.org/2000/svg" width="16" height="16" viewBox="0 0 16 16" fill="none">
  <mask id="mask0_316_864" style="mask-type:alpha" maskUnits="userSpaceOnUse" x="0" y="0" width="16" height="16">
    <rect width="16" height="16" fill="white"/>
  </mask>
  <g mask="url(#mask0_316_864)">
    <mask id="mask1_316_864" style="mask-type:alpha" maskUnits="userSpaceOnUse" x="0" y="0" width="16" height="16">
      <rect width="16" height="16" fill="white"/>
    </mask>
    <g mask="url(#mask1_316_864)">
      <path d="M1 3.5C0.447998 3.5 0 3.9477 0 4.5H1V3.5ZM15 3.5H1V4.5H15V3.5ZM16 4.5C16 3.9477 15.552 3.5 15 3.5V4.5H16ZM15 5.5C15.552 5.5 16 5.0523 16 4.5H15V5.5ZM1 5.5H15V4.5H1V5.5ZM0 4.5C0 5.0523 0.447998 5.5 1 5.5V4.5H0ZM3.5 7C2.948 7 2.5 7.448 2.5 8H3.5V7ZM12.5 7H3.5V8H12.5V7ZM13.5 8C13.5 7.448 13.052 7 12.5 7V8H13.5ZM12.5 9C13.052 9 13.5 8.552 13.5 8H12.5V9ZM3.5 9H12.5V8H3.5V9ZM2.5 8C2.5 8.552 2.948 9 3.5 9V8H2.5ZM6.5 10.5C5.948 10.5 5.5 10.948 5.5 11.5H6.5V10.5ZM9.5 10.5H6.5V11.5H9.5V10.5ZM10.5 11.5C10.5 10.948 10.052 10.5 9.5 10.5V11.5H10.5ZM9.5 12.5C10.052 12.5 10.5 12.052 10.5 11.5H9.5V12.5ZM6.5 12.5H9.5V11.5H6.5V12.5ZM5.5 11.5C5.5 12.052 5.948 12.5 6.5 12.5V11.5H5.5Z" fill="#4B5563"/>
    </g>
  </g>
</svg>
